<svg width="70" height="70" viewBox="0 0 70 70" fill="none" xmlns="http://www.w3.org/2000/svg">
<path d="M35 70C44.2826 70 53.185 66.3125 59.7487 59.7487C66.3125 53.185 70 44.2826 70 35C70 25.7174 66.3125 16.815 59.7487 10.2513C53.185 3.68749 44.2826 2.77486e-07 35 -1.5299e-06L35 35L35 70Z" fill="white"/>
<path d="M40 34C39.4477 34 39 34.4477 39 35C39 35.5523 39.4477 36 40 36L40 34ZM55.7071 35.7071C56.0976 35.3166 56.0976 34.6834 55.7071 34.2929L49.3431 27.9289C48.9526 27.5384 48.3195 27.5384 47.9289 27.9289C47.5384 28.3195 47.5384 28.9526 47.9289 29.3431L53.5858 35L47.9289 40.6569C47.5384 41.0474 47.5384 41.6805 47.9289 42.0711C48.3195 42.4616 48.9526 42.4616 49.3431 42.0711L55.7071 35.7071ZM40 36L55 36L55 34L40 34L40 36Z" fill="#15C6D2"/>
</svg>
