<svg width="30" height="30" viewBox="0 0 30 30" fill="none" xmlns="http://www.w3.org/2000/svg">
<path d="M2.94078 15.4219L7.38799 19.8867C9.1107 21.5918 11.888 21.5918 13.6107 19.8867L22.5052 10.9921C22.8392 10.6406 22.8392 10.0781 22.5052 9.74414L13.1009 0.26373C12.9252 0.0878906 12.6966 0 12.4681 0C12.2396 0 12.0111 0.0878906 11.8529 0.26373L7.14201 5.01562L13.5228 7.14252C13.9798 7.2832 14.2259 7.79291 14.0677 8.24994C13.9271 8.70697 13.4349 8.95312 12.9604 8.79486L5.77086 6.4043L2.94078 9.21674C0.585312 11.5546 1.92125 14.4199 2.94078 15.4219Z" fill="#15C6D2"/>
<path d="M2.97612 3.62695C2.5192 3.4688 2.00932 3.71484 1.86881 4.17187C1.71055 4.6289 1.9567 5.13873 2.41374 5.27929L5.7711 6.40435L7.14225 5.01568L2.97612 3.62695Z" fill="#15C6D2"/>
<path d="M15 22.9102C12.5058 22.9102 0 23.0793 0 26.4258C0 29.7723 12.5058 30 15 30C17.4942 30 30 29.7723 30 26.4258C30 23.0793 17.4942 22.9102 15 22.9102Z" fill="#15C6D2"/>
<path d="M24.6696 19.3946C24.6696 20.3653 25.4566 21.1524 26.4274 21.1524C27.3982 21.1524 28.1852 20.3653 28.1852 19.3946C28.1852 19.1335 28.1852 12.9843 28.1852 13.2422C28.1852 9.00143 24.8236 5.55735 20.6289 5.3678C20.6289 5.3678 23.7868 8.53579 23.8455 8.59461C24.3729 9.12372 24.6696 9.83956 24.6696 10.5867V19.3946Z" fill="#15C6D2"/>
</svg>
