<svg width="60" height="60" viewBox="0 0 60 60" fill="none" xmlns="http://www.w3.org/2000/svg">
<path d="M43.3549 26.7425L41.0048 26.4437C40.8111 25.8475 40.5723 25.2725 40.2936 24.7262L41.7449 22.8575C42.3324 22.1012 42.2636 21.0338 41.5924 20.3837L39.6235 18.415C38.9672 17.7375 37.8997 17.67 37.1422 18.2562L35.2758 19.7075C34.7296 19.4288 34.1545 19.19 33.557 18.9963L33.2583 16.65C33.1458 15.7088 32.347 15 31.4007 15H28.6006C27.6543 15 26.8555 15.7088 26.743 16.6463L26.4442 18.9963C25.8467 19.19 25.2717 19.4275 24.7254 19.7075L22.8578 18.2562C22.1028 17.67 21.0353 17.7375 20.384 18.4088L18.4151 20.3763C17.7376 21.0338 17.6689 22.1013 18.2564 22.8588L19.7077 24.7262C19.4277 25.2725 19.1902 25.8475 18.9964 26.4437L16.6501 26.7425C15.7088 26.855 15 27.6538 15 28.6V31.4C15 32.3463 15.7088 33.145 16.6463 33.2575L18.9964 33.5562C19.1902 34.1525 19.4289 34.7275 19.7077 35.2738L18.2564 37.1425C17.6689 37.8988 17.7376 38.9663 18.4089 39.6163L20.3777 41.585C21.0353 42.2612 22.1015 42.3287 22.8591 41.7425L24.7267 40.2913C25.2729 40.5712 25.848 40.81 26.4442 41.0025L26.743 43.3475C26.8555 44.2913 27.6543 45 28.6006 45H31.4007C32.347 45 33.1458 44.2913 33.2583 43.3538L33.557 41.0037C34.1533 40.81 34.7283 40.5712 35.2746 40.2925L37.1434 41.7438C37.8997 42.3313 38.9672 42.2625 39.6173 41.5913L41.5861 39.6225C42.2636 38.965 42.3324 37.8987 41.7449 37.1412L40.2936 35.2738C40.5736 34.7275 40.8123 34.1525 41.0048 33.5562L43.3499 33.2575C44.2912 33.145 45 32.3463 45 31.4V28.6C45.0012 27.6538 44.2925 26.855 43.3549 26.7425ZM30.0006 36.25C26.5542 36.25 23.7504 33.4463 23.7504 30C23.7504 26.5538 26.5542 23.75 30.0006 23.75C33.447 23.75 36.2509 26.5538 36.2509 30C36.2509 33.4463 33.447 36.25 30.0006 36.25Z" fill="#15C6D2"/>
</svg>
