<svg width="30" height="30" viewBox="0 0 30 30" fill="none" xmlns="http://www.w3.org/2000/svg">
<path d="M20.9999 15.7031C29.7205 14.0381 29.998 2.9401 29.9999 2.82573C30.0036 2.57448 29.9061 2.3326 29.7299 2.15448C29.5536 1.97636 29.3136 1.87511 29.0624 1.87511H22.4999V0.937615C22.4999 0.420119 22.0799 0.00012207 21.5624 0.00012207H8.43754C7.92004 0.00012207 7.50005 0.420119 7.50005 0.937615V1.87511H0.937597C0.686349 1.87511 0.446351 1.97636 0.270102 2.15448C0.0938536 2.3326 -0.00364566 2.57448 0.000104309 2.82573C0.00197929 2.9401 0.277603 14.04 9.00003 15.7031C9.81565 16.7981 10.9069 17.67 12.1875 18.1912V21.5043C12.1875 23.4337 11.0288 25.1381 9.22503 25.8487L8.08129 26.3174C7.73067 26.4637 7.50005 26.8068 7.50005 27.1874V29.0624C7.50005 29.5799 7.92004 29.9999 8.43754 29.9999H21.5624C22.0799 29.9999 22.4999 29.5799 22.4999 29.0624V27.1874C22.4999 26.8068 22.2693 26.4637 21.9168 26.3193L20.7618 25.8468C18.9693 25.1381 17.8125 23.4356 17.8125 21.5062V18.1931C19.095 17.67 20.1862 16.7981 20.9999 15.7031ZM22.4999 11.25V3.75009H28.0555C27.8155 6.00195 26.7468 11.5969 22.1362 13.44C22.3499 12.7425 22.4999 12.0169 22.4999 11.25ZM1.93696 3.75009H7.50005V11.25C7.50005 12.0188 7.65004 12.7463 7.86567 13.4456C3.1932 11.6063 2.16009 6.01507 1.93696 3.75009Z" fill="#15C6D2"/>
</svg>
