<svg width="36" height="24" viewBox="0 0 36 24" fill="none" xmlns="http://www.w3.org/2000/svg">
<path d="M29.6992 17.2798C28.0119 17.2798 26.6392 18.6528 26.6392 20.3398C26.6392 22.0271 28.0119 23.3998 29.6992 23.3998C31.3861 23.3998 32.7592 22.0271 32.7592 20.3398C32.7592 18.6528 31.3861 17.2798 29.6992 17.2798ZM29.6992 21.2398C29.2027 21.2398 28.7992 20.8362 28.7992 20.3398C28.7992 19.8434 29.2027 19.4398 29.6992 19.4398C30.1956 19.4398 30.5992 19.8434 30.5992 20.3398C30.5992 20.8362 30.1956 21.2398 29.6992 21.2398Z" fill="#15C6D2"/>
<path d="M29.4064 4.56H24.1194C23.7216 4.56 23.3994 4.88259 23.3994 5.28V19.32C23.3994 19.7174 23.7216 20.04 24.1194 20.04H24.883C25.2394 20.04 25.5551 19.7833 25.6012 19.4298C25.8838 17.2648 27.6107 15.922 29.6998 15.922C31.7888 15.922 33.5158 17.2648 33.7983 19.4298C33.8444 19.7834 34.1598 20.04 34.5165 20.04H35.2793C35.6768 20.04 35.9994 19.7174 35.9994 19.32V12.3C35.9994 12.1308 35.9399 11.9674 35.8316 11.8381L29.9585 4.81812C29.8218 4.6547 29.6195 4.56 29.4064 4.56ZM24.8394 10.32V6.72C24.8394 6.32259 25.1616 6 25.5594 6H28.731C28.9445 6 29.1472 6.09506 29.2839 6.25917L32.2838 9.85918C32.6744 10.3282 32.3411 11.04 31.7305 11.04H25.5594C25.1616 11.04 24.8394 10.7178 24.8394 10.32Z" fill="#15C6D2"/>
<path d="M0.72 20.0403H2.56359C2.92 20.0403 3.23571 19.7836 3.28176 19.4301C3.56435 17.265 5.29129 15.9223 7.38035 15.9223C9.46941 15.9223 11.1964 17.2651 11.4789 19.4301C11.525 19.7836 11.8404 20.0403 12.1971 20.0403H21.24C21.6375 20.0403 21.96 19.7177 21.96 19.3203V1.32028C21.96 0.922869 21.6374 0.600281 21.24 0.600281H0.72C0.322176 0.600281 0 0.922869 0 1.32028V19.3203C0 19.7177 0.322176 20.0403 0.72 20.0403Z" fill="#15C6D2"/>
<path d="M7.37738 17.2798C5.69009 17.2798 4.31738 18.6528 4.31738 20.3398C4.31738 22.0271 5.69009 23.3998 7.37738 23.3998C9.06432 23.3998 10.4374 22.0271 10.4374 20.3398C10.4374 18.6528 9.06432 17.2798 7.37738 17.2798ZM7.37738 21.2398C6.88097 21.2398 6.47738 20.8362 6.47738 20.3398C6.47738 19.8434 6.88097 19.4398 7.37738 19.4398C7.87379 19.4398 8.27738 19.8434 8.27738 20.3398C8.27738 20.8362 7.87379 21.2398 7.37738 21.2398Z" fill="#15C6D2"/>
</svg>
