<svg width="60" height="60" viewBox="0 0 60 60" fill="none" xmlns="http://www.w3.org/2000/svg">
<path d="M45.6903 17.3047H14.3101C13.7703 17.3047 13.3335 17.7415 13.3335 18.2812V41.7188C13.3335 42.2585 13.7703 42.6953 14.3101 42.6953H45.6903C46.23 42.6953 46.6668 42.2585 46.6668 41.7188V18.2812C46.6668 17.7415 46.23 17.3047 45.6903 17.3047ZM34.1925 23.4502C34.574 23.0688 35.192 23.0688 35.5735 23.4502L37.5266 25.4033C37.908 25.7848 37.908 26.4028 37.5266 26.7842C37.1452 27.1657 36.5271 27.1657 36.1457 26.7842L34.1925 24.8311C33.811 24.4496 33.811 23.8316 34.1925 23.4502ZM25.8078 23.4502C26.1892 23.8316 26.1892 24.4497 25.8078 24.8311L23.8547 26.7842C23.4732 27.1657 22.8552 27.1657 22.4737 26.7842C22.0923 26.4028 22.0923 25.7848 22.4737 25.4033L24.4269 23.4502C24.8084 23.0687 25.4263 23.0687 25.8078 23.4502ZM19.7119 22.6415L21.6651 20.6883C22.0465 20.3069 22.6646 20.3069 23.046 20.6883C23.4274 21.0698 23.4274 21.6878 23.046 22.0693L21.0929 24.0224C20.7114 24.4038 20.0934 24.4038 19.7119 24.0224C19.3305 23.641 19.3304 23.0229 19.7119 22.6415ZM23.046 39.3117C22.6646 39.6931 22.0465 39.6931 21.6651 39.3117L19.7119 37.3585C19.3305 36.9771 19.3305 36.3591 19.7119 35.9776C20.0934 35.5962 20.7114 35.5962 21.0929 35.9776L23.046 37.9307C23.4274 38.3122 23.4274 38.9302 23.046 39.3117ZM25.8078 36.5498C25.4263 36.9313 24.8083 36.9313 24.4269 36.5498L22.4737 34.5967C22.0923 34.2152 22.0923 33.5972 22.4737 33.2158C22.8552 32.8343 23.4732 32.8343 23.8547 33.2158L25.8078 35.1689C26.1893 35.5504 26.1893 36.1684 25.8078 36.5498ZM30.0002 34.8828C27.2412 34.8828 25.1174 32.5778 25.1174 30C25.1174 27.3077 27.3079 25.1172 30.0002 25.1172C32.7591 25.1172 34.883 27.4222 34.883 30C34.883 32.6923 32.6924 34.8828 30.0002 34.8828ZM34.1925 36.5498C33.8111 36.1684 33.8111 35.5503 34.1925 35.1689L36.1457 33.2158C36.5271 32.8343 37.1452 32.8343 37.5266 33.2158C37.908 33.5972 37.908 34.2152 37.5266 34.5967L35.5735 36.5498C35.192 36.9313 34.574 36.9313 34.1925 36.5498ZM40.2884 37.3585L38.3353 39.3117C37.9538 39.6931 37.3358 39.6931 36.9543 39.3117C36.5729 38.9302 36.5729 38.3122 36.9543 37.9307L38.9075 35.9776C39.2889 35.5962 39.9069 35.5962 40.2884 35.9776C40.6698 36.3591 40.6699 36.9771 40.2884 37.3585ZM40.2884 24.0224C39.9069 24.4038 39.2889 24.4038 38.9075 24.0224L36.9543 22.0693C36.5729 21.6878 36.5729 21.0698 36.9543 20.6883C37.3358 20.3069 37.9538 20.3069 38.3353 20.6883L40.2884 22.6415C40.6699 23.0229 40.6699 23.6409 40.2884 24.0224Z" fill="#15C6D2"/>
<path d="M31.9531 29.0234C31.4143 29.0234 30.9766 29.4612 30.9766 30C30.9766 31.2715 30.1577 32.3453 29.0234 32.7498C29.3304 32.8592 29.656 32.9297 30 32.9297C31.6155 32.9297 32.9297 31.6155 32.9297 30C32.9297 29.4612 32.4919 29.0234 31.9531 29.0234Z" fill="#15C6D2"/>
<path d="M30.9766 27.2502C30.6696 27.1408 30.344 27.0703 30 27.0703C28.3845 27.0703 27.0703 28.3845 27.0703 30C27.0703 30.5388 27.5081 30.9766 28.0469 30.9766C28.5857 30.9766 29.0234 30.5388 29.0234 30C29.0234 28.7285 29.8423 27.6547 30.9766 27.2502Z" fill="#15C6D2"/>
</svg>
