<svg width="30" height="30" viewBox="0 0 30 30" fill="none" xmlns="http://www.w3.org/2000/svg">
<g clip-path="url(#clip0_1_191)">
<path d="M15 0C6.72535 0 0 6.72535 0 15C0 23.2746 6.72535 30 15 30C23.2746 30 30 23.2746 30 15C30 6.72535 23.2746 0 15 0ZM15 28.4859C7.57042 28.4859 1.51408 22.4296 1.51408 15C1.51408 7.57042 7.57042 1.51408 15 1.51408C22.4296 1.51408 28.4859 7.57042 28.4859 15C28.4859 22.4296 22.4296 28.4859 15 28.4859Z" fill="#DDDDDD"/>
<path d="M16.0564 14.9296L20.4578 10.5282C20.7395 10.2465 20.7395 9.75353 20.4578 9.47183C20.1761 9.19014 19.6832 9.19014 19.4015 9.47183L15.0001 13.8732L10.5987 9.47183C10.317 9.19014 9.82401 9.19014 9.54232 9.47183C9.26063 9.75353 9.26063 10.2465 9.54232 10.5282L13.9437 14.9296L9.54232 19.2958C9.26063 19.5775 9.26063 20.0704 9.54232 20.3521C9.68317 20.493 9.89443 20.5634 10.0705 20.5634C10.2465 20.5634 10.4578 20.493 10.5987 20.3521L15.0001 15.9507L19.4015 20.3521C19.5423 20.493 19.7536 20.5634 19.9296 20.5634C20.1057 20.5634 20.317 20.493 20.4578 20.3521C20.7395 20.0704 20.7395 19.5775 20.4578 19.2958L16.0564 14.9296Z" fill="#DDDDDD"/>
</g>
<defs>
<clipPath id="clip0_1_191">
<rect width="30" height="30" fill="white"/>
</clipPath>
</defs>
</svg>
