<svg width="70" height="70" viewBox="0 0 70 70" fill="none" xmlns="http://www.w3.org/2000/svg">
<circle cx="35" cy="35" r="35" fill="#15C6D2"/>
<g clip-path="url(#clip0_1_474)">
<path d="M36.8323 35.0178L44.6199 27.2299C45.1267 26.7234 45.1267 25.9043 44.6199 25.3977C44.1134 24.8912 43.2943 24.8912 42.7877 25.3977L34.9999 33.1856L27.2123 25.3977C26.7055 24.8912 25.8867 24.8912 25.3801 25.3977C24.8733 25.9043 24.8733 26.7234 25.3801 27.2299L33.1677 35.0178L25.3801 42.8056C24.8733 43.3122 24.8733 44.1312 25.3801 44.6378C25.6326 44.8905 25.9645 45.0174 26.2962 45.0174C26.6279 45.0174 26.9596 44.8905 27.2123 44.6378L34.9999 36.8499L42.7877 44.6378C43.0404 44.8905 43.3721 45.0174 43.7038 45.0174C44.0355 45.0174 44.3672 44.8905 44.6199 44.6378C45.1267 44.1312 45.1267 43.3122 44.6199 42.8056L36.8323 35.0178Z" fill="white"/>
</g>
<defs>
<clipPath id="clip0_1_474">
<rect width="20" height="20" fill="white" transform="translate(25 25)"/>
</clipPath>
</defs>
</svg>
