<svg width="30" height="30" viewBox="0 0 30 30" fill="none" xmlns="http://www.w3.org/2000/svg">
<path d="M15 0C6.72875 0 0 6.72875 0 15C0 23.2712 6.72875 30 15 30C23.2712 30 30 23.2712 30 15C30 6.72875 23.2712 0 15 0ZM22.6025 11.8212L14.4775 19.9462C14.2337 20.19 13.9137 20.3125 13.5938 20.3125C13.2738 20.3125 12.9538 20.19 12.71 19.9462L8.6475 15.8837C8.15875 15.395 8.15875 14.605 8.6475 14.1163C9.13625 13.6275 9.92625 13.6275 10.415 14.1163L13.5938 17.295L20.835 10.0538C21.3237 9.565 22.1138 9.565 22.6025 10.0538C23.0913 10.5425 23.0913 11.3325 22.6025 11.8212Z" fill="#15C6D2"/>
</svg>
