<svg width="14" height="14" viewBox="0 0 14 14" fill="none" xmlns="http://www.w3.org/2000/svg">
<g clip-path="url(#clip0_1_88)">
<path d="M12.0357 1.96427C10.7691 0.697566 9.08493 0 7.29359 0C5.50225 0 3.81809 0.697566 2.55139 1.96427C1.28469 3.23096 0.587152 4.91507 0.587152 6.70641C0.587152 7.84115 0.874398 8.95623 1.41963 9.94397L0 14L4.05598 12.5804C5.04375 13.1256 6.15882 13.4128 7.29356 13.4128C9.08491 13.4128 10.7691 12.7153 12.0357 11.4486C13.3024 10.1819 14 8.49778 14 6.70641C14 4.91504 13.3024 3.23094 12.0357 1.96427ZM10.609 9.19775L9.83473 9.97199C9.19335 10.6134 7.37349 9.83347 5.77002 8.22998C4.16653 6.62648 3.38661 4.80668 4.02801 4.16527L4.80222 3.39106C4.96256 3.23072 5.22255 3.23072 5.38289 3.39106L6.35067 4.35884C6.51101 4.51918 6.51101 4.77917 6.35067 4.93951L5.77 5.52018C6.33325 6.70928 7.29072 7.66672 8.47982 8.22998L9.06049 7.6493C9.22083 7.48896 9.48082 7.48896 9.64116 7.6493L10.6089 8.61708C10.7693 8.77745 10.7693 9.03741 10.609 9.19775Z" fill="#777777"/>
</g>
<defs>
<clipPath id="clip0_1_88">
<rect width="14" height="14" fill="white"/>
</clipPath>
</defs>
</svg>
